<?xml version="1.0" encoding="UTF-8" standalone="no"?>
<!-- Generator: Adobe Illustrator 16.0.0, SVG Export Plug-In . SVG Version: 6.00 Build 0)  -->

<svg
   xmlns:dc="http://purl.org/dc/elements/1.1/"
   xmlns:cc="http://creativecommons.org/ns#"
   xmlns:rdf="http://www.w3.org/1999/02/22-rdf-syntax-ns#"
   xmlns:svg="http://www.w3.org/2000/svg"
   xmlns="http://www.w3.org/2000/svg"
   xmlns:sodipodi="http://sodipodi.sourceforge.net/DTD/sodipodi-0.dtd"
   xmlns:inkscape="http://www.inkscape.org/namespaces/inkscape"
   version="1.1"
   x="0px"
   y="0px"
   width="195.465"
   height="43.041"
   viewBox="0 0 195.465 43.041"
   enable-background="new 0 0 448.74 231.933"
   xml:space="preserve"
   id="svg3460"
   inkscape:version="0.91 r13725"
   sodipodi:docname="logo-lawn.svg"><metadata
     id="metadata3512"><rdf:RDF><cc:Work
         rdf:about=""><dc:format>image/svg+xml</dc:format><dc:type
           rdf:resource="http://purl.org/dc/dcmitype/StillImage" /><dc:title></dc:title></cc:Work></rdf:RDF></metadata><defs
     id="defs3510" /><sodipodi:namedview
     pagecolor="#000000"
     bordercolor="#666666"
     borderopacity="1"
     objecttolerance="10"
     gridtolerance="10"
     guidetolerance="10"
     inkscape:pageopacity="0"
     inkscape:pageshadow="2"
     inkscape:window-width="1855"
     inkscape:window-height="1056"
     id="namedview3508"
     showgrid="false"
     inkscape:zoom="3.0128806"
     inkscape:cx="150.33922"
     inkscape:cy="94.099069"
     inkscape:window-x="65"
     inkscape:window-y="24"
     inkscape:window-maximized="1"
     inkscape:current-layer="svg3460"
     fit-margin-top="0"
     fit-margin-left="0"
     fit-margin-right="0"
     fit-margin-bottom="0" /><g
     id="Layer_2"
     transform="translate(-32.185,-165.234)" /><g
     id="g3474"
     style="opacity:0.8"><path
       d="m 0.8344291,37.606593 5.1123597,0 0,-32.0499193 -5.1123598,0 0,-4.816088 16.103933,0 0,4.816088 -5.169164,0 0,31.8205823 14.286205,0 0,-6.679456 5.140762,0 0,11.495543 -30.3617359,0 0,-4.58675 z"
       style="font-style:normal;font-variant:normal;font-weight:normal;font-stretch:normal;font-size:58.43821716px;line-height:125%;font-family:'Museo Slab';-inkscape-font-specification:'Museo Slab, Normal';text-align:start;letter-spacing:14.60955334;writing-mode:lr-tb;text-anchor:start;fill:#ffffff"
       id="path3462"
       inkscape:connector-curvature="0" /><path
       d="m 43.666937,37.938501 3.947878,0 13.093321,-36.866007 6.560862,0 13.09332,36.866007 3.947878,0 0,4.58675 -14.257802,0 0,-4.58675 4.373907,0 -3.209426,-9.202168 -14.541823,0 -3.181024,9.202168 4.40231,0 0,4.58675 -14.229401,0 0,-4.58675 z M 69.768373,24.034913 64.769621,9.643984 Q 64.542405,9.013306 64.400396,8.439962 64.286788,7.866618 64.201582,7.436611 64.087974,6.920602 64.059571,6.490593 l -0.170411,0 q -0.0284,0.430009 -0.142011,0.946018 -0.0852,0.430007 -0.227215,1.003351 -0.113608,0.573344 -0.312422,1.204022 l -5.083958,14.390929 11.644819,0 z"
       style="font-style:normal;font-variant:normal;font-weight:normal;font-stretch:normal;font-size:58.43821716px;line-height:125%;font-family:'Museo Slab';-inkscape-font-specification:'Museo Slab, Normal';text-align:start;letter-spacing:14.60955334;writing-mode:lr-tb;text-anchor:start;fill:#ffffff"
       id="path3464"
       inkscape:connector-curvature="0" /><path
       d="m 88.175807,1.072494 14.598623,0 0,4.529416 -4.885144,0 6.390454,27.176496 q 0.11361,0.573344 0.19881,1.118021 0.0852,0.544676 0.14201,1.003352 0.0852,0.516009 0.11361,1.003352 l 0.19881,0 q 0.0284,-0.487343 0.14201,-1.003352 0.0568,-0.458676 0.17042,-1.003352 0.1136,-0.544677 0.25562,-1.118021 l 8.60579,-31.705912 4.94196,0 8.549,31.705912 q 0.14201,0.573344 0.25562,1.118021 0.14201,0.544676 0.19881,1.003352 l 0.14201,1.003352 0.22721,0 q 0.0284,-0.487343 0.0852,-1.003352 0.0852,-0.946018 0.31242,-2.121373 l 6.41885,-27.176496 -4.88513,0 0,-4.529416 14.65543,0 0,4.529416 -3.97628,0 -9.17386,36.923341 -6.64606,0 -8.00936,-29.412537 q -0.17041,-0.544676 -0.28402,-1.11802 -0.0852,-0.602011 -0.14201,-1.089354 -0.0852,-0.544676 -0.11361,-1.089353 l -0.22721,0 q -0.0284,0.544677 -0.11361,1.089353 -0.0568,0.487343 -0.17042,1.089354 -0.0852,0.573344 -0.22721,1.11802 l -8.03776,29.412537 -6.61767,0 -9.145453,-36.923341 -3.94787,0 0,-4.529416 z"
       style="font-style:normal;font-variant:normal;font-weight:normal;font-stretch:normal;font-size:58.43821716px;line-height:125%;font-family:'Museo Slab';-inkscape-font-specification:'Museo Slab, Normal';text-align:start;letter-spacing:14.60955334;writing-mode:lr-tb;text-anchor:start;fill:#ffffff"
       id="path3466"
       inkscape:connector-curvature="0" /><path
       d="m 151.99473,37.606593 5.11236,0 0,-32.3365913 -5.11236,0 0,-4.52941595 10.87796,0 20.16542,29.69920925 q 0.25562,0.458675 0.51124,0.974684 0.25561,0.51601 0.45443,0.974685 0.22721,0.51601 0.42602,1.060686 l 0.17042,0 q -0.0852,-0.602011 -0.14201,-1.204022 -0.0568,-0.51601 -0.11361,-1.089353 -0.0284,-0.573344 -0.0284,-1.060686 l 0,-24.8257873 -5.22597,0 0,-4.52941595 16.21754,0 0,4.52941595 -5.16917,0 0,36.9233413 -5.7088,0 -20.16541,-29.699209 q -0.31243,-0.430008 -0.56805,-0.946017 -0.22721,-0.544676 -0.42602,-1.003352 -0.22721,-0.516009 -0.39763,-1.0606863 l -0.19881,0 q 0.0568,0.6020113 0.14201,1.2040223 0.0568,0.51601 0.0852,1.089353 0.0568,0.573344 0.0284,1.060687 l 0,24.768452 5.28277,0 0,4.58675 -16.21754,0 0,-4.58675 z"
       style="font-style:normal;font-variant:normal;font-weight:normal;font-stretch:normal;font-size:58.43821716px;line-height:125%;font-family:'Museo Slab';-inkscape-font-specification:'Museo Slab, Normal';text-align:start;letter-spacing:14.60955334;writing-mode:lr-tb;text-anchor:start;fill:#ffffff"
       id="path3468"
       inkscape:connector-curvature="0" /></g></svg>