<?xml version="1.0" encoding="UTF-8" standalone="no"?>
<!-- Generator: Adobe Illustrator 16.0.0, SVG Export Plug-In . SVG Version: 6.00 Build 0)  -->

<svg
   xmlns:dc="http://purl.org/dc/elements/1.1/"
   xmlns:cc="http://creativecommons.org/ns#"
   xmlns:rdf="http://www.w3.org/1999/02/22-rdf-syntax-ns#"
   xmlns:svg="http://www.w3.org/2000/svg"
   xmlns="http://www.w3.org/2000/svg"
   xmlns:xlink="http://www.w3.org/1999/xlink"
   xmlns:sodipodi="http://sodipodi.sourceforge.net/DTD/sodipodi-0.dtd"
   xmlns:inkscape="http://www.inkscape.org/namespaces/inkscape"
   version="1.1"
   x="0px"
   y="0px"
   width="392.69501"
   height="128.145"
   viewBox="0 0 392.69502 128.14501"
   enable-background="new 0 0 448.74 231.933"
   xml:space="preserve"
   id="svg3460"
   inkscape:version="0.91 r13725"
   sodipodi:docname="logo-handy.svg"><metadata
     id="metadata3512"><rdf:RDF><cc:Work
         rdf:about=""><dc:format>image/svg+xml</dc:format><dc:type
           rdf:resource="http://purl.org/dc/dcmitype/StillImage" /><dc:title /></cc:Work></rdf:RDF></metadata><defs
     id="defs3510"><clipPath
       id="SVGID_2_-3"><rect
         id="use3476-6"
         x="-87.394997"
         y="-238.815"
         width="612"
         height="792" /></clipPath><clipPath
       id="clipPath3375"><rect
         id="use3377"
         x="-87.394997"
         y="-238.815"
         width="612"
         height="792" /></clipPath><clipPath
       id="clipPath3379"><rect
         id="use3381"
         x="-87.394997"
         y="-238.815"
         width="612"
         height="792" /></clipPath><clipPath
       id="clipPath3383"><rect
         id="use3385"
         x="-87.394997"
         y="-238.815"
         width="612"
         height="792" /></clipPath><clipPath
       id="clipPath3387"><rect
         id="use3389"
         x="-87.394997"
         y="-238.815"
         width="612"
         height="792" /></clipPath><clipPath
       id="clipPath3391"><rect
         id="use3393"
         x="-87.394997"
         y="-238.815"
         width="612"
         height="792" /></clipPath><clipPath
       id="clipPath3395"><rect
         id="use3397"
         x="-87.394997"
         y="-238.815"
         width="612"
         height="792" /></clipPath><clipPath
       id="clipPath3399"><rect
         id="use3401"
         x="-87.394997"
         y="-238.815"
         width="612"
         height="792" /></clipPath><clipPath
       id="clipPath3403"><rect
         id="use3405"
         x="-87.394997"
         y="-238.815"
         width="612"
         height="792" /></clipPath><clipPath
       id="clipPath3407"><rect
         id="use3409"
         x="-87.394997"
         y="-238.815"
         width="612"
         height="792" /></clipPath><clipPath
       id="clipPath3411"><rect
         id="use3413"
         x="-87.394997"
         y="-238.815"
         width="612"
         height="792" /></clipPath><clipPath
       id="clipPath3415"><rect
         id="use3417"
         x="-87.394997"
         y="-238.815"
         width="612"
         height="792" /></clipPath><clipPath
       id="clipPath3419"><rect
         id="use3421"
         x="-87.394997"
         y="-238.815"
         width="612"
         height="792" /></clipPath><clipPath
       id="clipPath3423"><rect
         id="use3425"
         x="-87.394997"
         y="-238.815"
         width="612"
         height="792" /></clipPath><clipPath
       id="clipPath3427"><rect
         id="use3429"
         x="-87.394997"
         y="-238.815"
         width="612"
         height="792" /></clipPath></defs><sodipodi:namedview
     pagecolor="#000000"
     bordercolor="#666666"
     borderopacity="1"
     objecttolerance="10"
     gridtolerance="10"
     guidetolerance="10"
     inkscape:pageopacity="0"
     inkscape:pageshadow="2"
     inkscape:window-width="1855"
     inkscape:window-height="1056"
     id="namedview3508"
     showgrid="false"
     inkscape:zoom="2.1304283"
     inkscape:cx="143.08525"
     inkscape:cy="57.697153"
     inkscape:window-x="65"
     inkscape:window-y="24"
     inkscape:window-maximized="1"
     inkscape:current-layer="Layer_1"
     fit-margin-top="0"
     fit-margin-left="0"
     fit-margin-right="0"
     fit-margin-bottom="0" /><g
     id="Layer_2"
     transform="translate(-6.473373,-5.614433)" /><g
     id="Layer_1"
     style="opacity:0.8;fill:#ffffff"
     transform="translate(-6.473373,-5.614433)"><g
       style="fill:#ffffff"
       id="g3466"
       transform="translate(-24.877627,-18.775567)"><polygon
         style="fill:#ffffff"
         id="polygon3468"
         points="70.266,152.535 70.266,93.573 48.252,93.573 48.252,152.535 31.351,152.535 31.351,24.391 48.252,24.391 48.252,78.046 70.266,78.046 70.266,24.391 87.167,24.391 87.167,152.535 " /><g
         style="fill:#ffffff"
         id="g3470"><defs
           id="defs3472"><rect
             height="792"
             width="612"
             y="-238.815"
             x="-87.394997"
             id="SVGID_1_" /></defs><clipPath
           id="SVGID_2_"><use
             height="100%"
             width="100%"
             y="0"
             x="0"
             style="overflow:visible"
             id="use3476"
             overflow="visible"
             xlink:href="#SVGID_1_" /></clipPath><path
           inkscape:connector-curvature="0"
           style="fill:#ffffff"
           id="path3478"
           d="m 235.365,152.535 -25.944,-96.306 -0.393,0 c 0,0 2.162,15.135 2.162,27.516 l 0,68.79 -15.528,0 0,-128.144 18.868,0 25.944,96.304 0.393,0 c 0,0 -1.965,-15.724 -1.965,-27.515 l 0,-68.789 15.525,0 0,128.144 -19.062,0 z"
           clip-path="url(#SVGID_2_)" /><path
           inkscape:connector-curvature="0"
           style="fill:#ffffff"
           id="path3480"
           d="m 314.572,152.535 -27.711,0 0,-128.144 27.711,0 c 19.457,0 27.32,11.006 27.32,27.908 l 0,72.328 c 0,16.902 -7.863,27.908 -27.32,27.908 m 10.416,-99.449 c 0,-8.059 -3.34,-13.169 -10.416,-13.169 l -10.811,0 0,97.483 10.811,0 c 7.076,0 10.416,-5.109 10.416,-13.168 l 0,-71.146 z"
           clip-path="url(#SVGID_2_)" /><path
           inkscape:connector-curvature="0"
           style="fill:#ffffff"
           id="path3482"
           d="m 401.638,103.596 0,48.939 -16.9,0 0,-48.939 -22.012,-79.205 17.688,0 9.826,42.059 c 1.967,8.845 2.949,18.475 2.949,18.475 l 0.395,0 c 0,0 1.18,-9.63 3.145,-18.475 l 9.631,-42.059 17.686,0 -22.408,79.205 z"
           clip-path="url(#SVGID_2_)" /><path
           inkscape:connector-curvature="0"
           style="fill:#ffffff;opacity:0"
           id="path3500"
           d="M 172.076,152.535 152.618,24.39 l -22.209,0 -19.654,128.145 17.66,0 0,-12.244 c 0,0 1.824,0.322 3.676,-2.118 1.364,-1.798 1.129,-4.184 1.025,-4.831 0.005,0.026 0.009,0.043 0.016,0.076 0.286,1.223 0.068,-2.042 -1.91,-3.776 -1.441,-1.264 -2.807,-1.123 -2.807,-1.123 l 0,-5.473 25.334,0 0,5.473 c 0,0 -2.023,0.012 -3.239,1.555 -1.216,1.543 -1.364,2.704 -1.364,2.704 0,0 -0.43,2.374 0.111,3.661 0.54,1.286 0.957,2.213 1.719,2.758 0.762,0.546 0.816,0.845 2.778,1.094 l -0.027,12.244 18.349,0 z m -27.377,-80.716 0,41.403 -7.234,0 0,-41.403 -2.426,-6.826 2.426,-16.159 7.234,0 2.59,15.698 -2.59,7.287 z"
           clip-path="url(#SVGID_2_)" /><path
           inkscape:connector-curvature="0"
           style="fill:#ffffff;opacity:0"
           id="path3502"
           d="m 134.198,143.165 c -0.927,0.041 -1.038,0.937 -1.038,0.937 l 0,8.417 2.074,-0.002 0,-8.319 c 0,0 -0.109,-1.074 -1.036,-1.033"
           clip-path="url(#SVGID_2_)" /><path
           inkscape:connector-curvature="0"
           style="fill:#ffffff;opacity:0"
           id="path3504"
           d="m 141.078,143.165 c -0.952,-0.042 -1.033,1.033 -1.033,1.033 l 0,8.317 2.068,0.002 0,-8.319 c 0,0 -0.083,-0.991 -1.035,-1.033"
           clip-path="url(#SVGID_2_)" /><path
           inkscape:connector-curvature="0"
           style="fill:#ffffff;opacity:0"
           id="path3506"
           d="m 147.961,143.165 c -0.919,-0.022 -1.031,1.038 -1.031,1.038 l 0,8.314 2.068,0.002 -0.011,-8.444 c 0,0 -0.107,-0.888 -1.026,-0.91"
           clip-path="url(#SVGID_2_)" /></g></g></g></svg>