<?xml version="1.0" encoding="UTF-8" standalone="no"?>
<!-- Generator: Adobe Illustrator 16.0.0, SVG Export Plug-In . SVG Version: 6.00 Build 0)  -->

<svg
   xmlns:dc="http://purl.org/dc/elements/1.1/"
   xmlns:cc="http://creativecommons.org/ns#"
   xmlns:rdf="http://www.w3.org/1999/02/22-rdf-syntax-ns#"
   xmlns:svg="http://www.w3.org/2000/svg"
   xmlns="http://www.w3.org/2000/svg"
   xmlns:xlink="http://www.w3.org/1999/xlink"
   xmlns:sodipodi="http://sodipodi.sourceforge.net/DTD/sodipodi-0.dtd"
   xmlns:inkscape="http://www.inkscape.org/namespaces/inkscape"
   version="1.1"
   x="0px"
   y="0px"
   width="195.465"
   height="43.041"
   viewBox="0 0 195.465 43.041"
   enable-background="new 0 0 448.74 231.933"
   xml:space="preserve"
   id="svg3460"
   inkscape:version="0.91 r13725"
   sodipodi:docname="logo-home.svg"><metadata
     id="metadata3512"><rdf:RDF><cc:Work
         rdf:about=""><dc:format>image/svg+xml</dc:format><dc:type
           rdf:resource="http://purl.org/dc/dcmitype/StillImage" /><dc:title></dc:title></cc:Work></rdf:RDF></metadata><defs
     id="defs3510" /><sodipodi:namedview
     pagecolor="#000000"
     bordercolor="#666666"
     borderopacity="1"
     objecttolerance="10"
     gridtolerance="10"
     guidetolerance="10"
     inkscape:pageopacity="0"
     inkscape:pageshadow="2"
     inkscape:window-width="1855"
     inkscape:window-height="1056"
     id="namedview3508"
     showgrid="false"
     inkscape:zoom="3.0128806"
     inkscape:cx="230.82698"
     inkscape:cy="94.099069"
     inkscape:window-x="65"
     inkscape:window-y="24"
     inkscape:window-maximized="1"
     inkscape:current-layer="svg3460"
     fit-margin-top="0"
     fit-margin-left="0"
     fit-margin-right="0"
     fit-margin-bottom="0" /><g
     id="Layer_2"
     transform="translate(-32.185,-165.234)" /><g
     id="Layer_1"
     style="opacity:0.8;fill:#ffffff"
     transform="translate(-32.185,-165.234)"><g
       id="g3464"
       style="fill:#ffffff"><g
         id="g3466"
         style="fill:#ffffff"><g
           id="g3470"
           style="fill:#ffffff"><defs
             id="defs3472"><rect
               id="SVGID_1_"
               x="-87.394997"
               y="-238.815"
               width="612"
               height="792" /></defs><clipPath
             id="SVGID_2_"><use
               xlink:href="#SVGID_1_"
               overflow="visible"
               id="use3476"
               style="overflow:visible"
               x="0"
               y="0"
               width="100%"
               height="100%" /></clipPath><polygon
             clip-path="url(#SVGID_2_)"
             points="48.517,170.482 43.269,170.482 43.269,184.337 64.849,184.337 64.849,170.482 59.602,170.482 59.602,165.941 75.933,165.941 75.933,170.482 70.745,170.482 70.745,202.968 75.933,202.968 75.933,207.568 59.602,207.568 59.602,202.968 64.849,202.968 64.849,189.171 43.269,189.171 43.269,202.968 48.517,202.968 48.517,207.568 32.185,207.568 32.185,202.968 37.373,202.968 37.373,170.482 32.185,170.482 32.185,165.941 48.517,165.941 "
             id="polygon3484"
             style="fill:#ffffff" /><path
             clip-path="url(#SVGID_2_)"
             d="m 106.302,165.234 c 12.028,0 21.402,9.258 21.402,21.227 0,12.264 -9.374,21.814 -21.402,21.814 -12.087,0 -21.402,-9.551 -21.402,-21.814 0,-11.969 9.315,-21.227 21.402,-21.227 m 0,37.793 c 8.432,0 15.271,-7.193 15.271,-16.566 0,-9.08 -6.839,-16.037 -15.271,-16.037 -8.49,0 -15.33,6.957 -15.33,16.037 0,9.372 6.84,16.566 15.33,16.566"
             id="path3486"
             style="fill:#ffffff"
             inkscape:connector-curvature="0" /><path
             clip-path="url(#SVGID_2_)"
             d="m 135.727,202.968 5.188,0 2.654,-32.486 -5.306,0 0,-4.541 11.792,0 10.671,25.354 c 0.649,1.709 0.943,3.008 0.943,3.008 l 0.119,0 c 0,0 0.294,-1.299 0.943,-3.008 l 10.672,-25.354 11.792,0 0,4.541 -5.307,0 2.653,32.486 5.189,0 0,4.6 -16.037,0 0,-4.6 5.012,0 -1.887,-24.881 c -0.059,-1.297 0.177,-3.42 0.177,-3.42 l -0.177,0 c 0,0 -0.472,2.004 -0.944,3.184 l -9.551,21.875 -5.189,0 -9.551,-21.875 c -0.472,-1.18 -0.943,-3.184 -0.943,-3.184 l -0.178,0 c 0,0 0.237,2.123 0.178,3.42 l -1.887,24.881 5.011,0 0,4.6 -16.037,0 0,-4.6 z"
             id="path3488"
             style="fill:#ffffff"
             inkscape:connector-curvature="0" /><polygon
             clip-path="url(#SVGID_2_)"
             points="226.648,175.611 221.517,175.611 221.517,170.777 207.603,170.777 207.603,184.16 222.343,184.16 222.343,188.996 207.603,188.996 207.603,202.732 222.519,202.732 222.519,197.72 227.65,197.72 227.65,207.568 196.519,207.568 196.519,202.968 201.707,202.968 201.707,170.482 196.519,170.482 196.519,165.941 226.648,165.941 "
             id="polygon3490"
             style="fill:#ffffff" /></g></g></g></g></svg>